<svg xmlns="http://www.w3.org/2000/svg" xmlns:xlink="http://www.w3.org/1999/xlink" width="512" zoomAndPan="magnify" viewBox="0 0 384 383.999986" height="512" preserveAspectRatio="xMidYMid meet" version="1.0"><defs><clipPath id="ca4d0c2cdf"><path d="M 55 118.492188 L 328.703125 118.492188 L 328.703125 265.492188 L 55 265.492188 Z M 55 118.492188 " clip-rule="nonzero"/></clipPath></defs><g clip-path="url(#ca4d0c2cdf)"><path fill="#ffffff" d="M 128.425781 118.492188 L 255.234375 118.492188 C 256.433594 118.492188 257.636719 118.523438 258.835938 118.582031 C 260.035156 118.640625 261.234375 118.730469 262.429688 118.847656 C 263.625 118.964844 264.816406 119.113281 266.003906 119.289062 C 267.195312 119.464844 268.378906 119.671875 269.554688 119.90625 C 270.734375 120.140625 271.90625 120.402344 273.070312 120.695312 C 274.238281 120.988281 275.394531 121.308594 276.542969 121.660156 C 277.695312 122.007812 278.835938 122.386719 279.964844 122.789062 C 281.097656 123.195312 282.21875 123.628906 283.328125 124.089844 C 284.4375 124.550781 285.535156 125.035156 286.621094 125.550781 C 287.707031 126.066406 288.78125 126.605469 289.839844 127.171875 C 290.898438 127.738281 291.945312 128.332031 292.976562 128.949219 C 294.007812 129.570312 295.019531 130.210938 296.019531 130.878906 C 297.019531 131.550781 298 132.242188 298.964844 132.957031 C 299.929688 133.675781 300.878906 134.414062 301.808594 135.175781 C 302.734375 135.941406 303.644531 136.726562 304.535156 137.535156 C 305.425781 138.339844 306.296875 139.171875 307.144531 140.019531 C 307.996094 140.871094 308.824219 141.742188 309.628906 142.632812 C 310.4375 143.523438 311.222656 144.4375 311.984375 145.367188 C 312.746094 146.296875 313.484375 147.242188 314.199219 148.210938 C 314.914062 149.175781 315.609375 150.160156 316.273438 151.160156 C 316.941406 152.160156 317.585938 153.175781 318.203125 154.207031 C 318.820312 155.238281 319.414062 156.285156 319.980469 157.347656 C 320.546875 158.40625 321.085938 159.480469 321.597656 160.570312 C 322.113281 161.65625 322.597656 162.753906 323.058594 163.867188 C 323.519531 164.976562 323.953125 166.101562 324.355469 167.230469 C 324.761719 168.363281 325.136719 169.507812 325.488281 170.65625 C 325.835938 171.808594 326.15625 172.96875 326.449219 174.132812 C 326.738281 175.300781 327.003906 176.476562 327.238281 177.65625 C 327.472656 178.835938 327.675781 180.019531 327.851562 181.210938 C 328.03125 182.398438 328.175781 183.59375 328.292969 184.789062 C 328.410156 185.988281 328.5 187.1875 328.558594 188.386719 C 328.617188 189.589844 328.648438 190.789062 328.648438 191.992188 C 328.648438 193.195312 328.617188 194.398438 328.558594 195.601562 C 328.5 196.800781 328.410156 198 328.292969 199.199219 C 328.175781 200.394531 328.03125 201.589844 327.851562 202.777344 C 327.675781 203.96875 327.472656 205.152344 327.238281 206.332031 C 327.003906 207.511719 326.738281 208.6875 326.449219 209.851562 C 326.15625 211.019531 325.835938 212.179688 325.488281 213.328125 C 325.136719 214.480469 324.761719 215.621094 324.355469 216.753906 C 323.953125 217.886719 323.519531 219.007812 323.058594 220.121094 C 322.597656 221.230469 322.113281 222.332031 321.597656 223.417969 C 321.085938 224.507812 320.546875 225.582031 319.980469 226.640625 C 319.414062 227.703125 318.820312 228.75 318.203125 229.78125 C 317.585938 230.8125 316.941406 231.828125 316.273438 232.828125 C 315.609375 233.828125 314.914062 234.8125 314.199219 235.777344 C 313.484375 236.742188 312.746094 237.691406 311.984375 238.621094 C 311.222656 239.550781 310.4375 240.460938 309.628906 241.351562 C 308.824219 242.246094 307.996094 243.117188 307.144531 243.964844 C 306.296875 244.816406 305.425781 245.644531 304.535156 246.453125 C 303.644531 247.261719 302.734375 248.046875 301.808594 248.808594 C 300.878906 249.574219 299.929688 250.3125 298.964844 251.03125 C 298 251.746094 297.019531 252.4375 296.019531 253.105469 C 295.019531 253.773438 294.007812 254.417969 292.976562 255.035156 C 291.945312 255.65625 290.898438 256.246094 289.839844 256.816406 C 288.78125 257.382812 287.707031 257.921875 286.621094 258.4375 C 285.535156 258.949219 284.4375 259.4375 283.328125 259.898438 C 282.21875 260.359375 281.097656 260.792969 279.964844 261.195312 C 278.835938 261.601562 277.695312 261.980469 276.542969 262.328125 C 275.394531 262.679688 274.238281 263 273.070312 263.289062 C 271.90625 263.582031 270.734375 263.847656 269.554688 264.082031 C 268.378906 264.316406 267.195312 264.523438 266.003906 264.699219 C 264.816406 264.875 263.625 265.023438 262.429688 265.140625 C 261.234375 265.257812 260.035156 265.347656 258.835938 265.40625 C 257.636719 265.464844 256.433594 265.492188 255.234375 265.492188 L 128.425781 265.492188 C 127.222656 265.492188 126.023438 265.464844 124.824219 265.40625 C 123.625 265.347656 122.425781 265.257812 121.230469 265.140625 C 120.035156 265.023438 118.84375 264.875 117.652344 264.699219 C 116.464844 264.523438 115.28125 264.316406 114.101562 264.082031 C 112.925781 263.847656 111.753906 263.582031 110.585938 263.289062 C 109.421875 263 108.265625 262.679688 107.113281 262.328125 C 105.964844 261.980469 104.824219 261.601562 103.691406 261.195312 C 102.5625 260.792969 101.441406 260.359375 100.332031 259.898438 C 99.222656 259.4375 98.121094 258.949219 97.035156 258.4375 C 95.949219 257.921875 94.878906 257.382812 93.816406 256.816406 C 92.757812 256.246094 91.714844 255.65625 90.683594 255.035156 C 89.652344 254.417969 88.636719 253.773438 87.640625 253.105469 C 86.640625 252.4375 85.65625 251.746094 84.691406 251.03125 C 83.726562 250.3125 82.78125 249.574219 81.851562 248.808594 C 80.921875 248.046875 80.011719 247.261719 79.125 246.453125 C 78.234375 245.644531 77.363281 244.816406 76.515625 243.964844 C 75.664062 243.117188 74.835938 242.246094 74.027344 241.351562 C 73.222656 240.460938 72.4375 239.550781 71.675781 238.621094 C 70.914062 237.691406 70.175781 236.742188 69.457031 235.777344 C 68.742188 234.8125 68.050781 233.828125 67.382812 232.828125 C 66.714844 231.828125 66.074219 230.8125 65.457031 229.78125 C 64.839844 228.75 64.246094 227.703125 63.679688 226.640625 C 63.113281 225.582031 62.574219 224.507812 62.058594 223.417969 C 61.546875 222.332031 61.058594 221.230469 60.597656 220.121094 C 60.140625 219.007812 59.707031 217.886719 59.300781 216.753906 C 58.898438 215.621094 58.519531 214.480469 58.171875 213.328125 C 57.824219 212.179688 57.503906 211.019531 57.210938 209.851562 C 56.917969 208.6875 56.65625 207.511719 56.421875 206.332031 C 56.1875 205.152344 55.980469 203.96875 55.804688 202.777344 C 55.628906 201.589844 55.480469 200.394531 55.363281 199.199219 C 55.246094 198 55.160156 196.800781 55.097656 195.601562 C 55.039062 194.398438 55.011719 193.195312 55.011719 191.992188 C 55.011719 190.789062 55.039062 189.589844 55.097656 188.386719 C 55.160156 187.1875 55.246094 185.988281 55.363281 184.789062 C 55.480469 183.59375 55.628906 182.398438 55.804688 181.210938 C 55.980469 180.019531 56.1875 178.835938 56.421875 177.65625 C 56.65625 176.476562 56.917969 175.300781 57.210938 174.132812 C 57.503906 172.96875 57.824219 171.808594 58.171875 170.65625 C 58.519531 169.507812 58.898438 168.363281 59.300781 167.230469 C 59.707031 166.101562 60.140625 164.976562 60.597656 163.867188 C 61.058594 162.753906 61.546875 161.65625 62.058594 160.570312 C 62.574219 159.480469 63.113281 158.40625 63.679688 157.347656 C 64.246094 156.285156 64.839844 155.238281 65.457031 154.207031 C 66.074219 153.175781 66.714844 152.160156 67.382812 151.160156 C 68.050781 150.160156 68.742188 149.175781 69.457031 148.210938 C 70.175781 147.242188 70.914062 146.296875 71.675781 145.367188 C 72.4375 144.4375 73.222656 143.523438 74.027344 142.632812 C 74.835938 141.742188 75.664062 140.871094 76.515625 140.019531 C 77.363281 139.171875 78.234375 138.339844 79.125 137.535156 C 80.011719 136.726562 80.921875 135.941406 81.851562 135.175781 C 82.78125 134.414062 83.726562 133.675781 84.691406 132.957031 C 85.65625 132.242188 86.640625 131.550781 87.640625 130.878906 C 88.636719 130.210938 89.652344 129.570312 90.683594 128.949219 C 91.714844 128.332031 92.757812 127.738281 93.816406 127.171875 C 94.878906 126.605469 95.949219 126.066406 97.035156 125.550781 C 98.121094 125.035156 99.222656 124.550781 100.332031 124.089844 C 101.441406 123.628906 102.5625 123.195312 103.691406 122.789062 C 104.824219 122.386719 105.964844 122.007812 107.113281 121.660156 C 108.265625 121.308594 109.421875 120.988281 110.585938 120.695312 C 111.753906 120.402344 112.925781 120.140625 114.101562 119.90625 C 115.28125 119.671875 116.464844 119.464844 117.652344 119.289062 C 118.84375 119.113281 120.035156 118.964844 121.230469 118.847656 C 122.425781 118.730469 123.625 118.640625 124.824219 118.582031 C 126.023438 118.523438 127.222656 118.492188 128.425781 118.492188 Z M 128.425781 118.492188 " fill-opacity="1" fill-rule="nonzero"/><path fill="#020617" d="M 55.011719 191.992188 C 55.011719 151.402344 87.878906 118.492188 128.425781 118.492188 L 255.234375 118.492188 C 295.777344 118.492188 328.648438 151.402344 328.648438 191.992188 C 328.648438 232.585938 295.777344 265.492188 255.234375 265.492188 L 128.425781 265.492188 C 87.878906 265.492188 55.011719 232.585938 55.011719 191.992188 Z M 181.816406 191.992188 C 181.816406 181.421875 178.6875 171.085938 172.820312 162.296875 C 166.953125 153.503906 158.613281 146.652344 148.859375 142.609375 C 139.101562 138.5625 128.367188 137.503906 118.007812 139.566406 C 107.652344 141.628906 98.136719 146.71875 90.671875 154.195312 C 83.203125 161.671875 78.121094 171.195312 76.058594 181.566406 C 74 191.933594 75.054688 202.683594 79.097656 212.449219 C 83.136719 222.21875 89.980469 230.566406 98.761719 236.441406 C 107.542969 242.3125 117.867188 245.449219 128.425781 245.449219 L 128.425781 191.992188 Z M 299.628906 221.691406 C 305.496094 212.902344 308.625 202.566406 308.625 191.992188 L 255.234375 191.992188 L 255.234375 138.539062 C 244.671875 138.539062 234.351562 141.675781 225.570312 147.546875 C 216.789062 153.421875 209.945312 161.769531 205.90625 171.539062 C 201.863281 181.304688 200.804688 192.054688 202.867188 202.421875 C 204.925781 212.792969 210.011719 222.316406 217.480469 229.792969 C 224.945312 237.265625 234.460938 242.359375 244.816406 244.421875 C 255.175781 246.484375 265.910156 245.425781 275.664062 241.378906 C 285.421875 237.332031 293.761719 230.480469 299.628906 221.691406 Z M 299.628906 221.691406 " fill-opacity="1" fill-rule="evenodd"/></g></svg>